G04 #@! TF.GenerationSoftware,KiCad,Pcbnew,5.1.5-52549c5~84~ubuntu18.04.1*
G04 #@! TF.CreationDate,2020-02-19T18:51:23+01:00*
G04 #@! TF.ProjectId,test,74657374-2e6b-4696-9361-645f70636258,rev?*
G04 #@! TF.SameCoordinates,Original*
G04 #@! TF.FileFunction,Paste,Top*
G04 #@! TF.FilePolarity,Positive*
%FSLAX46Y46*%
G04 Gerber Fmt 4.6, Leading zero omitted, Abs format (unit mm)*
G04 Created by KiCad (PCBNEW 5.1.5-52549c5~84~ubuntu18.04.1) date 2020-02-19 18:51:23*
%MOMM*%
%LPD*%
G04 APERTURE LIST*
%ADD10C,0.100000*%
G04 APERTURE END LIST*
D10*
G36*
X86019203Y-128805722D02*
G01*
X86033764Y-128807882D01*
X86048043Y-128811459D01*
X86061903Y-128816418D01*
X86075210Y-128822712D01*
X86087836Y-128830280D01*
X86099659Y-128839048D01*
X86110566Y-128848934D01*
X86120452Y-128859841D01*
X86129220Y-128871664D01*
X86136788Y-128884290D01*
X86143082Y-128897597D01*
X86148041Y-128911457D01*
X86151618Y-128925736D01*
X86153778Y-128940297D01*
X86154500Y-128955000D01*
X86154500Y-129255000D01*
X86153778Y-129269703D01*
X86151618Y-129284264D01*
X86148041Y-129298543D01*
X86143082Y-129312403D01*
X86136788Y-129325710D01*
X86129220Y-129338336D01*
X86120452Y-129350159D01*
X86110566Y-129361066D01*
X86099659Y-129370952D01*
X86087836Y-129379720D01*
X86075210Y-129387288D01*
X86061903Y-129393582D01*
X86048043Y-129398541D01*
X86033764Y-129402118D01*
X86019203Y-129404278D01*
X86004500Y-129405000D01*
X84354500Y-129405000D01*
X84339797Y-129404278D01*
X84325236Y-129402118D01*
X84310957Y-129398541D01*
X84297097Y-129393582D01*
X84283790Y-129387288D01*
X84271164Y-129379720D01*
X84259341Y-129370952D01*
X84248434Y-129361066D01*
X84238548Y-129350159D01*
X84229780Y-129338336D01*
X84222212Y-129325710D01*
X84215918Y-129312403D01*
X84210959Y-129298543D01*
X84207382Y-129284264D01*
X84205222Y-129269703D01*
X84204500Y-129255000D01*
X84204500Y-128955000D01*
X84205222Y-128940297D01*
X84207382Y-128925736D01*
X84210959Y-128911457D01*
X84215918Y-128897597D01*
X84222212Y-128884290D01*
X84229780Y-128871664D01*
X84238548Y-128859841D01*
X84248434Y-128848934D01*
X84259341Y-128839048D01*
X84271164Y-128830280D01*
X84283790Y-128822712D01*
X84297097Y-128816418D01*
X84310957Y-128811459D01*
X84325236Y-128807882D01*
X84339797Y-128805722D01*
X84354500Y-128805000D01*
X86004500Y-128805000D01*
X86019203Y-128805722D01*
G37*
G36*
X86019203Y-127535722D02*
G01*
X86033764Y-127537882D01*
X86048043Y-127541459D01*
X86061903Y-127546418D01*
X86075210Y-127552712D01*
X86087836Y-127560280D01*
X86099659Y-127569048D01*
X86110566Y-127578934D01*
X86120452Y-127589841D01*
X86129220Y-127601664D01*
X86136788Y-127614290D01*
X86143082Y-127627597D01*
X86148041Y-127641457D01*
X86151618Y-127655736D01*
X86153778Y-127670297D01*
X86154500Y-127685000D01*
X86154500Y-127985000D01*
X86153778Y-127999703D01*
X86151618Y-128014264D01*
X86148041Y-128028543D01*
X86143082Y-128042403D01*
X86136788Y-128055710D01*
X86129220Y-128068336D01*
X86120452Y-128080159D01*
X86110566Y-128091066D01*
X86099659Y-128100952D01*
X86087836Y-128109720D01*
X86075210Y-128117288D01*
X86061903Y-128123582D01*
X86048043Y-128128541D01*
X86033764Y-128132118D01*
X86019203Y-128134278D01*
X86004500Y-128135000D01*
X84354500Y-128135000D01*
X84339797Y-128134278D01*
X84325236Y-128132118D01*
X84310957Y-128128541D01*
X84297097Y-128123582D01*
X84283790Y-128117288D01*
X84271164Y-128109720D01*
X84259341Y-128100952D01*
X84248434Y-128091066D01*
X84238548Y-128080159D01*
X84229780Y-128068336D01*
X84222212Y-128055710D01*
X84215918Y-128042403D01*
X84210959Y-128028543D01*
X84207382Y-128014264D01*
X84205222Y-127999703D01*
X84204500Y-127985000D01*
X84204500Y-127685000D01*
X84205222Y-127670297D01*
X84207382Y-127655736D01*
X84210959Y-127641457D01*
X84215918Y-127627597D01*
X84222212Y-127614290D01*
X84229780Y-127601664D01*
X84238548Y-127589841D01*
X84248434Y-127578934D01*
X84259341Y-127569048D01*
X84271164Y-127560280D01*
X84283790Y-127552712D01*
X84297097Y-127546418D01*
X84310957Y-127541459D01*
X84325236Y-127537882D01*
X84339797Y-127535722D01*
X84354500Y-127535000D01*
X86004500Y-127535000D01*
X86019203Y-127535722D01*
G37*
G36*
X86019203Y-126265722D02*
G01*
X86033764Y-126267882D01*
X86048043Y-126271459D01*
X86061903Y-126276418D01*
X86075210Y-126282712D01*
X86087836Y-126290280D01*
X86099659Y-126299048D01*
X86110566Y-126308934D01*
X86120452Y-126319841D01*
X86129220Y-126331664D01*
X86136788Y-126344290D01*
X86143082Y-126357597D01*
X86148041Y-126371457D01*
X86151618Y-126385736D01*
X86153778Y-126400297D01*
X86154500Y-126415000D01*
X86154500Y-126715000D01*
X86153778Y-126729703D01*
X86151618Y-126744264D01*
X86148041Y-126758543D01*
X86143082Y-126772403D01*
X86136788Y-126785710D01*
X86129220Y-126798336D01*
X86120452Y-126810159D01*
X86110566Y-126821066D01*
X86099659Y-126830952D01*
X86087836Y-126839720D01*
X86075210Y-126847288D01*
X86061903Y-126853582D01*
X86048043Y-126858541D01*
X86033764Y-126862118D01*
X86019203Y-126864278D01*
X86004500Y-126865000D01*
X84354500Y-126865000D01*
X84339797Y-126864278D01*
X84325236Y-126862118D01*
X84310957Y-126858541D01*
X84297097Y-126853582D01*
X84283790Y-126847288D01*
X84271164Y-126839720D01*
X84259341Y-126830952D01*
X84248434Y-126821066D01*
X84238548Y-126810159D01*
X84229780Y-126798336D01*
X84222212Y-126785710D01*
X84215918Y-126772403D01*
X84210959Y-126758543D01*
X84207382Y-126744264D01*
X84205222Y-126729703D01*
X84204500Y-126715000D01*
X84204500Y-126415000D01*
X84205222Y-126400297D01*
X84207382Y-126385736D01*
X84210959Y-126371457D01*
X84215918Y-126357597D01*
X84222212Y-126344290D01*
X84229780Y-126331664D01*
X84238548Y-126319841D01*
X84248434Y-126308934D01*
X84259341Y-126299048D01*
X84271164Y-126290280D01*
X84283790Y-126282712D01*
X84297097Y-126276418D01*
X84310957Y-126271459D01*
X84325236Y-126267882D01*
X84339797Y-126265722D01*
X84354500Y-126265000D01*
X86004500Y-126265000D01*
X86019203Y-126265722D01*
G37*
G36*
X86019203Y-124995722D02*
G01*
X86033764Y-124997882D01*
X86048043Y-125001459D01*
X86061903Y-125006418D01*
X86075210Y-125012712D01*
X86087836Y-125020280D01*
X86099659Y-125029048D01*
X86110566Y-125038934D01*
X86120452Y-125049841D01*
X86129220Y-125061664D01*
X86136788Y-125074290D01*
X86143082Y-125087597D01*
X86148041Y-125101457D01*
X86151618Y-125115736D01*
X86153778Y-125130297D01*
X86154500Y-125145000D01*
X86154500Y-125445000D01*
X86153778Y-125459703D01*
X86151618Y-125474264D01*
X86148041Y-125488543D01*
X86143082Y-125502403D01*
X86136788Y-125515710D01*
X86129220Y-125528336D01*
X86120452Y-125540159D01*
X86110566Y-125551066D01*
X86099659Y-125560952D01*
X86087836Y-125569720D01*
X86075210Y-125577288D01*
X86061903Y-125583582D01*
X86048043Y-125588541D01*
X86033764Y-125592118D01*
X86019203Y-125594278D01*
X86004500Y-125595000D01*
X84354500Y-125595000D01*
X84339797Y-125594278D01*
X84325236Y-125592118D01*
X84310957Y-125588541D01*
X84297097Y-125583582D01*
X84283790Y-125577288D01*
X84271164Y-125569720D01*
X84259341Y-125560952D01*
X84248434Y-125551066D01*
X84238548Y-125540159D01*
X84229780Y-125528336D01*
X84222212Y-125515710D01*
X84215918Y-125502403D01*
X84210959Y-125488543D01*
X84207382Y-125474264D01*
X84205222Y-125459703D01*
X84204500Y-125445000D01*
X84204500Y-125145000D01*
X84205222Y-125130297D01*
X84207382Y-125115736D01*
X84210959Y-125101457D01*
X84215918Y-125087597D01*
X84222212Y-125074290D01*
X84229780Y-125061664D01*
X84238548Y-125049841D01*
X84248434Y-125038934D01*
X84259341Y-125029048D01*
X84271164Y-125020280D01*
X84283790Y-125012712D01*
X84297097Y-125006418D01*
X84310957Y-125001459D01*
X84325236Y-124997882D01*
X84339797Y-124995722D01*
X84354500Y-124995000D01*
X86004500Y-124995000D01*
X86019203Y-124995722D01*
G37*
G36*
X81069203Y-124995722D02*
G01*
X81083764Y-124997882D01*
X81098043Y-125001459D01*
X81111903Y-125006418D01*
X81125210Y-125012712D01*
X81137836Y-125020280D01*
X81149659Y-125029048D01*
X81160566Y-125038934D01*
X81170452Y-125049841D01*
X81179220Y-125061664D01*
X81186788Y-125074290D01*
X81193082Y-125087597D01*
X81198041Y-125101457D01*
X81201618Y-125115736D01*
X81203778Y-125130297D01*
X81204500Y-125145000D01*
X81204500Y-125445000D01*
X81203778Y-125459703D01*
X81201618Y-125474264D01*
X81198041Y-125488543D01*
X81193082Y-125502403D01*
X81186788Y-125515710D01*
X81179220Y-125528336D01*
X81170452Y-125540159D01*
X81160566Y-125551066D01*
X81149659Y-125560952D01*
X81137836Y-125569720D01*
X81125210Y-125577288D01*
X81111903Y-125583582D01*
X81098043Y-125588541D01*
X81083764Y-125592118D01*
X81069203Y-125594278D01*
X81054500Y-125595000D01*
X79404500Y-125595000D01*
X79389797Y-125594278D01*
X79375236Y-125592118D01*
X79360957Y-125588541D01*
X79347097Y-125583582D01*
X79333790Y-125577288D01*
X79321164Y-125569720D01*
X79309341Y-125560952D01*
X79298434Y-125551066D01*
X79288548Y-125540159D01*
X79279780Y-125528336D01*
X79272212Y-125515710D01*
X79265918Y-125502403D01*
X79260959Y-125488543D01*
X79257382Y-125474264D01*
X79255222Y-125459703D01*
X79254500Y-125445000D01*
X79254500Y-125145000D01*
X79255222Y-125130297D01*
X79257382Y-125115736D01*
X79260959Y-125101457D01*
X79265918Y-125087597D01*
X79272212Y-125074290D01*
X79279780Y-125061664D01*
X79288548Y-125049841D01*
X79298434Y-125038934D01*
X79309341Y-125029048D01*
X79321164Y-125020280D01*
X79333790Y-125012712D01*
X79347097Y-125006418D01*
X79360957Y-125001459D01*
X79375236Y-124997882D01*
X79389797Y-124995722D01*
X79404500Y-124995000D01*
X81054500Y-124995000D01*
X81069203Y-124995722D01*
G37*
G36*
X81069203Y-126265722D02*
G01*
X81083764Y-126267882D01*
X81098043Y-126271459D01*
X81111903Y-126276418D01*
X81125210Y-126282712D01*
X81137836Y-126290280D01*
X81149659Y-126299048D01*
X81160566Y-126308934D01*
X81170452Y-126319841D01*
X81179220Y-126331664D01*
X81186788Y-126344290D01*
X81193082Y-126357597D01*
X81198041Y-126371457D01*
X81201618Y-126385736D01*
X81203778Y-126400297D01*
X81204500Y-126415000D01*
X81204500Y-126715000D01*
X81203778Y-126729703D01*
X81201618Y-126744264D01*
X81198041Y-126758543D01*
X81193082Y-126772403D01*
X81186788Y-126785710D01*
X81179220Y-126798336D01*
X81170452Y-126810159D01*
X81160566Y-126821066D01*
X81149659Y-126830952D01*
X81137836Y-126839720D01*
X81125210Y-126847288D01*
X81111903Y-126853582D01*
X81098043Y-126858541D01*
X81083764Y-126862118D01*
X81069203Y-126864278D01*
X81054500Y-126865000D01*
X79404500Y-126865000D01*
X79389797Y-126864278D01*
X79375236Y-126862118D01*
X79360957Y-126858541D01*
X79347097Y-126853582D01*
X79333790Y-126847288D01*
X79321164Y-126839720D01*
X79309341Y-126830952D01*
X79298434Y-126821066D01*
X79288548Y-126810159D01*
X79279780Y-126798336D01*
X79272212Y-126785710D01*
X79265918Y-126772403D01*
X79260959Y-126758543D01*
X79257382Y-126744264D01*
X79255222Y-126729703D01*
X79254500Y-126715000D01*
X79254500Y-126415000D01*
X79255222Y-126400297D01*
X79257382Y-126385736D01*
X79260959Y-126371457D01*
X79265918Y-126357597D01*
X79272212Y-126344290D01*
X79279780Y-126331664D01*
X79288548Y-126319841D01*
X79298434Y-126308934D01*
X79309341Y-126299048D01*
X79321164Y-126290280D01*
X79333790Y-126282712D01*
X79347097Y-126276418D01*
X79360957Y-126271459D01*
X79375236Y-126267882D01*
X79389797Y-126265722D01*
X79404500Y-126265000D01*
X81054500Y-126265000D01*
X81069203Y-126265722D01*
G37*
G36*
X81069203Y-127535722D02*
G01*
X81083764Y-127537882D01*
X81098043Y-127541459D01*
X81111903Y-127546418D01*
X81125210Y-127552712D01*
X81137836Y-127560280D01*
X81149659Y-127569048D01*
X81160566Y-127578934D01*
X81170452Y-127589841D01*
X81179220Y-127601664D01*
X81186788Y-127614290D01*
X81193082Y-127627597D01*
X81198041Y-127641457D01*
X81201618Y-127655736D01*
X81203778Y-127670297D01*
X81204500Y-127685000D01*
X81204500Y-127985000D01*
X81203778Y-127999703D01*
X81201618Y-128014264D01*
X81198041Y-128028543D01*
X81193082Y-128042403D01*
X81186788Y-128055710D01*
X81179220Y-128068336D01*
X81170452Y-128080159D01*
X81160566Y-128091066D01*
X81149659Y-128100952D01*
X81137836Y-128109720D01*
X81125210Y-128117288D01*
X81111903Y-128123582D01*
X81098043Y-128128541D01*
X81083764Y-128132118D01*
X81069203Y-128134278D01*
X81054500Y-128135000D01*
X79404500Y-128135000D01*
X79389797Y-128134278D01*
X79375236Y-128132118D01*
X79360957Y-128128541D01*
X79347097Y-128123582D01*
X79333790Y-128117288D01*
X79321164Y-128109720D01*
X79309341Y-128100952D01*
X79298434Y-128091066D01*
X79288548Y-128080159D01*
X79279780Y-128068336D01*
X79272212Y-128055710D01*
X79265918Y-128042403D01*
X79260959Y-128028543D01*
X79257382Y-128014264D01*
X79255222Y-127999703D01*
X79254500Y-127985000D01*
X79254500Y-127685000D01*
X79255222Y-127670297D01*
X79257382Y-127655736D01*
X79260959Y-127641457D01*
X79265918Y-127627597D01*
X79272212Y-127614290D01*
X79279780Y-127601664D01*
X79288548Y-127589841D01*
X79298434Y-127578934D01*
X79309341Y-127569048D01*
X79321164Y-127560280D01*
X79333790Y-127552712D01*
X79347097Y-127546418D01*
X79360957Y-127541459D01*
X79375236Y-127537882D01*
X79389797Y-127535722D01*
X79404500Y-127535000D01*
X81054500Y-127535000D01*
X81069203Y-127535722D01*
G37*
G36*
X81069203Y-128805722D02*
G01*
X81083764Y-128807882D01*
X81098043Y-128811459D01*
X81111903Y-128816418D01*
X81125210Y-128822712D01*
X81137836Y-128830280D01*
X81149659Y-128839048D01*
X81160566Y-128848934D01*
X81170452Y-128859841D01*
X81179220Y-128871664D01*
X81186788Y-128884290D01*
X81193082Y-128897597D01*
X81198041Y-128911457D01*
X81201618Y-128925736D01*
X81203778Y-128940297D01*
X81204500Y-128955000D01*
X81204500Y-129255000D01*
X81203778Y-129269703D01*
X81201618Y-129284264D01*
X81198041Y-129298543D01*
X81193082Y-129312403D01*
X81186788Y-129325710D01*
X81179220Y-129338336D01*
X81170452Y-129350159D01*
X81160566Y-129361066D01*
X81149659Y-129370952D01*
X81137836Y-129379720D01*
X81125210Y-129387288D01*
X81111903Y-129393582D01*
X81098043Y-129398541D01*
X81083764Y-129402118D01*
X81069203Y-129404278D01*
X81054500Y-129405000D01*
X79404500Y-129405000D01*
X79389797Y-129404278D01*
X79375236Y-129402118D01*
X79360957Y-129398541D01*
X79347097Y-129393582D01*
X79333790Y-129387288D01*
X79321164Y-129379720D01*
X79309341Y-129370952D01*
X79298434Y-129361066D01*
X79288548Y-129350159D01*
X79279780Y-129338336D01*
X79272212Y-129325710D01*
X79265918Y-129312403D01*
X79260959Y-129298543D01*
X79257382Y-129284264D01*
X79255222Y-129269703D01*
X79254500Y-129255000D01*
X79254500Y-128955000D01*
X79255222Y-128940297D01*
X79257382Y-128925736D01*
X79260959Y-128911457D01*
X79265918Y-128897597D01*
X79272212Y-128884290D01*
X79279780Y-128871664D01*
X79288548Y-128859841D01*
X79298434Y-128848934D01*
X79309341Y-128839048D01*
X79321164Y-128830280D01*
X79333790Y-128822712D01*
X79347097Y-128816418D01*
X79360957Y-128811459D01*
X79375236Y-128807882D01*
X79389797Y-128805722D01*
X79404500Y-128805000D01*
X81054500Y-128805000D01*
X81069203Y-128805722D01*
G37*
M02*
