G04 #@! TF.GenerationSoftware,KiCad,Pcbnew,5.1.5-52549c5~84~ubuntu18.04.1*
G04 #@! TF.CreationDate,2020-02-19T18:51:23+01:00*
G04 #@! TF.ProjectId,test,74657374-2e6b-4696-9361-645f70636258,rev?*
G04 #@! TF.SameCoordinates,Original*
G04 #@! TF.FileFunction,Soldermask,Bot*
G04 #@! TF.FilePolarity,Negative*
%FSLAX46Y46*%
G04 Gerber Fmt 4.6, Leading zero omitted, Abs format (unit mm)*
G04 Created by KiCad (PCBNEW 5.1.5-52549c5~84~ubuntu18.04.1) date 2020-02-19 18:51:23*
%MOMM*%
%LPD*%
G04 APERTURE LIST*
%ADD10C,0.100000*%
G04 APERTURE END LIST*
D10*
G36*
X81673228Y-142269283D02*
G01*
X81828100Y-142333433D01*
X81967481Y-142426565D01*
X82086015Y-142545099D01*
X82179147Y-142684480D01*
X82243297Y-142839352D01*
X82276000Y-143003764D01*
X82276000Y-143171396D01*
X82243297Y-143335808D01*
X82179147Y-143490680D01*
X82086015Y-143630061D01*
X81967481Y-143748595D01*
X81828100Y-143841727D01*
X81673228Y-143905877D01*
X81508816Y-143938580D01*
X81341184Y-143938580D01*
X81176772Y-143905877D01*
X81021900Y-143841727D01*
X80882519Y-143748595D01*
X80763985Y-143630061D01*
X80670853Y-143490680D01*
X80606703Y-143335808D01*
X80574000Y-143171396D01*
X80574000Y-143003764D01*
X80606703Y-142839352D01*
X80670853Y-142684480D01*
X80763985Y-142545099D01*
X80882519Y-142426565D01*
X81021900Y-142333433D01*
X81176772Y-142269283D01*
X81341184Y-142236580D01*
X81508816Y-142236580D01*
X81673228Y-142269283D01*
G37*
G36*
X78903228Y-142269283D02*
G01*
X79058100Y-142333433D01*
X79197481Y-142426565D01*
X79316015Y-142545099D01*
X79409147Y-142684480D01*
X79473297Y-142839352D01*
X79506000Y-143003764D01*
X79506000Y-143171396D01*
X79473297Y-143335808D01*
X79409147Y-143490680D01*
X79316015Y-143630061D01*
X79197481Y-143748595D01*
X79058100Y-143841727D01*
X78903228Y-143905877D01*
X78738816Y-143938580D01*
X78571184Y-143938580D01*
X78406772Y-143905877D01*
X78251900Y-143841727D01*
X78112519Y-143748595D01*
X77993985Y-143630061D01*
X77900853Y-143490680D01*
X77836703Y-143335808D01*
X77804000Y-143171396D01*
X77804000Y-143003764D01*
X77836703Y-142839352D01*
X77900853Y-142684480D01*
X77993985Y-142545099D01*
X78112519Y-142426565D01*
X78251900Y-142333433D01*
X78406772Y-142269283D01*
X78571184Y-142236580D01*
X78738816Y-142236580D01*
X78903228Y-142269283D01*
G37*
G36*
X87213228Y-142269283D02*
G01*
X87368100Y-142333433D01*
X87507481Y-142426565D01*
X87626015Y-142545099D01*
X87719147Y-142684480D01*
X87783297Y-142839352D01*
X87816000Y-143003764D01*
X87816000Y-143171396D01*
X87783297Y-143335808D01*
X87719147Y-143490680D01*
X87626015Y-143630061D01*
X87507481Y-143748595D01*
X87368100Y-143841727D01*
X87213228Y-143905877D01*
X87048816Y-143938580D01*
X86881184Y-143938580D01*
X86716772Y-143905877D01*
X86561900Y-143841727D01*
X86422519Y-143748595D01*
X86303985Y-143630061D01*
X86210853Y-143490680D01*
X86146703Y-143335808D01*
X86114000Y-143171396D01*
X86114000Y-143003764D01*
X86146703Y-142839352D01*
X86210853Y-142684480D01*
X86303985Y-142545099D01*
X86422519Y-142426565D01*
X86561900Y-142333433D01*
X86716772Y-142269283D01*
X86881184Y-142236580D01*
X87048816Y-142236580D01*
X87213228Y-142269283D01*
G37*
G36*
X84443228Y-142269283D02*
G01*
X84598100Y-142333433D01*
X84737481Y-142426565D01*
X84856015Y-142545099D01*
X84949147Y-142684480D01*
X85013297Y-142839352D01*
X85046000Y-143003764D01*
X85046000Y-143171396D01*
X85013297Y-143335808D01*
X84949147Y-143490680D01*
X84856015Y-143630061D01*
X84737481Y-143748595D01*
X84598100Y-143841727D01*
X84443228Y-143905877D01*
X84278816Y-143938580D01*
X84111184Y-143938580D01*
X83946772Y-143905877D01*
X83791900Y-143841727D01*
X83652519Y-143748595D01*
X83533985Y-143630061D01*
X83440853Y-143490680D01*
X83376703Y-143335808D01*
X83344000Y-143171396D01*
X83344000Y-143003764D01*
X83376703Y-142839352D01*
X83440853Y-142684480D01*
X83533985Y-142545099D01*
X83652519Y-142426565D01*
X83791900Y-142333433D01*
X83946772Y-142269283D01*
X84111184Y-142236580D01*
X84278816Y-142236580D01*
X84443228Y-142269283D01*
G37*
G36*
X70908254Y-138575398D02*
G01*
X71281511Y-138730006D01*
X71281513Y-138730007D01*
X71617436Y-138954464D01*
X71903116Y-139240144D01*
X72072359Y-139493433D01*
X72127574Y-139576069D01*
X72282182Y-139949326D01*
X72361000Y-140345573D01*
X72361000Y-140749587D01*
X72282182Y-141145834D01*
X72129536Y-141514354D01*
X72127573Y-141519093D01*
X71903116Y-141855016D01*
X71617436Y-142140696D01*
X71281513Y-142365153D01*
X71281512Y-142365154D01*
X71281511Y-142365154D01*
X70908254Y-142519762D01*
X70512007Y-142598580D01*
X70107993Y-142598580D01*
X69711746Y-142519762D01*
X69338489Y-142365154D01*
X69338488Y-142365154D01*
X69338487Y-142365153D01*
X69002564Y-142140696D01*
X68716884Y-141855016D01*
X68492427Y-141519093D01*
X68490464Y-141514354D01*
X68337818Y-141145834D01*
X68259000Y-140749587D01*
X68259000Y-140345573D01*
X68337818Y-139949326D01*
X68492426Y-139576069D01*
X68547642Y-139493433D01*
X68716884Y-139240144D01*
X69002564Y-138954464D01*
X69338487Y-138730007D01*
X69338489Y-138730006D01*
X69711746Y-138575398D01*
X70107993Y-138496580D01*
X70512007Y-138496580D01*
X70908254Y-138575398D01*
G37*
G36*
X95908254Y-138575398D02*
G01*
X96281511Y-138730006D01*
X96281513Y-138730007D01*
X96617436Y-138954464D01*
X96903116Y-139240144D01*
X97072359Y-139493433D01*
X97127574Y-139576069D01*
X97282182Y-139949326D01*
X97361000Y-140345573D01*
X97361000Y-140749587D01*
X97282182Y-141145834D01*
X97129536Y-141514354D01*
X97127573Y-141519093D01*
X96903116Y-141855016D01*
X96617436Y-142140696D01*
X96281513Y-142365153D01*
X96281512Y-142365154D01*
X96281511Y-142365154D01*
X95908254Y-142519762D01*
X95512007Y-142598580D01*
X95107993Y-142598580D01*
X94711746Y-142519762D01*
X94338489Y-142365154D01*
X94338488Y-142365154D01*
X94338487Y-142365153D01*
X94002564Y-142140696D01*
X93716884Y-141855016D01*
X93492427Y-141519093D01*
X93490464Y-141514354D01*
X93337818Y-141145834D01*
X93259000Y-140749587D01*
X93259000Y-140345573D01*
X93337818Y-139949326D01*
X93492426Y-139576069D01*
X93547642Y-139493433D01*
X93716884Y-139240144D01*
X94002564Y-138954464D01*
X94338487Y-138730007D01*
X94338489Y-138730006D01*
X94711746Y-138575398D01*
X95107993Y-138496580D01*
X95512007Y-138496580D01*
X95908254Y-138575398D01*
G37*
G36*
X56213512Y-140043927D02*
G01*
X56362812Y-140073624D01*
X56526784Y-140141544D01*
X56674354Y-140240147D01*
X56799853Y-140365646D01*
X56898456Y-140513216D01*
X56966376Y-140677188D01*
X57001000Y-140851259D01*
X57001000Y-141028741D01*
X56966376Y-141202812D01*
X56898456Y-141366784D01*
X56799853Y-141514354D01*
X56674354Y-141639853D01*
X56526784Y-141738456D01*
X56362812Y-141806376D01*
X56213512Y-141836073D01*
X56188742Y-141841000D01*
X56011258Y-141841000D01*
X55986488Y-141836073D01*
X55837188Y-141806376D01*
X55673216Y-141738456D01*
X55525646Y-141639853D01*
X55400147Y-141514354D01*
X55301544Y-141366784D01*
X55233624Y-141202812D01*
X55199000Y-141028741D01*
X55199000Y-140851259D01*
X55233624Y-140677188D01*
X55301544Y-140513216D01*
X55400147Y-140365646D01*
X55525646Y-140240147D01*
X55673216Y-140141544D01*
X55837188Y-140073624D01*
X55986488Y-140043927D01*
X56011258Y-140039000D01*
X56188742Y-140039000D01*
X56213512Y-140043927D01*
G37*
G36*
X85828228Y-139429283D02*
G01*
X85983100Y-139493433D01*
X86122481Y-139586565D01*
X86241015Y-139705099D01*
X86334147Y-139844480D01*
X86398297Y-139999352D01*
X86431000Y-140163764D01*
X86431000Y-140331396D01*
X86398297Y-140495808D01*
X86334147Y-140650680D01*
X86241015Y-140790061D01*
X86122481Y-140908595D01*
X85983100Y-141001727D01*
X85828228Y-141065877D01*
X85663816Y-141098580D01*
X85496184Y-141098580D01*
X85331772Y-141065877D01*
X85176900Y-141001727D01*
X85037519Y-140908595D01*
X84918985Y-140790061D01*
X84825853Y-140650680D01*
X84761703Y-140495808D01*
X84729000Y-140331396D01*
X84729000Y-140163764D01*
X84761703Y-139999352D01*
X84825853Y-139844480D01*
X84918985Y-139705099D01*
X85037519Y-139586565D01*
X85176900Y-139493433D01*
X85331772Y-139429283D01*
X85496184Y-139396580D01*
X85663816Y-139396580D01*
X85828228Y-139429283D01*
G37*
G36*
X80288228Y-139429283D02*
G01*
X80443100Y-139493433D01*
X80582481Y-139586565D01*
X80701015Y-139705099D01*
X80794147Y-139844480D01*
X80858297Y-139999352D01*
X80891000Y-140163764D01*
X80891000Y-140331396D01*
X80858297Y-140495808D01*
X80794147Y-140650680D01*
X80701015Y-140790061D01*
X80582481Y-140908595D01*
X80443100Y-141001727D01*
X80288228Y-141065877D01*
X80123816Y-141098580D01*
X79956184Y-141098580D01*
X79791772Y-141065877D01*
X79636900Y-141001727D01*
X79497519Y-140908595D01*
X79378985Y-140790061D01*
X79285853Y-140650680D01*
X79221703Y-140495808D01*
X79189000Y-140331396D01*
X79189000Y-140163764D01*
X79221703Y-139999352D01*
X79285853Y-139844480D01*
X79378985Y-139705099D01*
X79497519Y-139586565D01*
X79636900Y-139493433D01*
X79791772Y-139429283D01*
X79956184Y-139396580D01*
X80123816Y-139396580D01*
X80288228Y-139429283D01*
G37*
G36*
X83058228Y-139429283D02*
G01*
X83213100Y-139493433D01*
X83352481Y-139586565D01*
X83471015Y-139705099D01*
X83564147Y-139844480D01*
X83628297Y-139999352D01*
X83661000Y-140163764D01*
X83661000Y-140331396D01*
X83628297Y-140495808D01*
X83564147Y-140650680D01*
X83471015Y-140790061D01*
X83352481Y-140908595D01*
X83213100Y-141001727D01*
X83058228Y-141065877D01*
X82893816Y-141098580D01*
X82726184Y-141098580D01*
X82561772Y-141065877D01*
X82406900Y-141001727D01*
X82267519Y-140908595D01*
X82148985Y-140790061D01*
X82055853Y-140650680D01*
X81991703Y-140495808D01*
X81959000Y-140331396D01*
X81959000Y-140163764D01*
X81991703Y-139999352D01*
X82055853Y-139844480D01*
X82148985Y-139705099D01*
X82267519Y-139586565D01*
X82406900Y-139493433D01*
X82561772Y-139429283D01*
X82726184Y-139396580D01*
X82893816Y-139396580D01*
X83058228Y-139429283D01*
G37*
G36*
X89201000Y-141098580D02*
G01*
X87499000Y-141098580D01*
X87499000Y-139396580D01*
X89201000Y-139396580D01*
X89201000Y-141098580D01*
G37*
G36*
X77518228Y-139429283D02*
G01*
X77673100Y-139493433D01*
X77812481Y-139586565D01*
X77931015Y-139705099D01*
X78024147Y-139844480D01*
X78088297Y-139999352D01*
X78121000Y-140163764D01*
X78121000Y-140331396D01*
X78088297Y-140495808D01*
X78024147Y-140650680D01*
X77931015Y-140790061D01*
X77812481Y-140908595D01*
X77673100Y-141001727D01*
X77518228Y-141065877D01*
X77353816Y-141098580D01*
X77186184Y-141098580D01*
X77021772Y-141065877D01*
X76866900Y-141001727D01*
X76727519Y-140908595D01*
X76608985Y-140790061D01*
X76515853Y-140650680D01*
X76451703Y-140495808D01*
X76419000Y-140331396D01*
X76419000Y-140163764D01*
X76451703Y-139999352D01*
X76515853Y-139844480D01*
X76608985Y-139705099D01*
X76727519Y-139586565D01*
X76866900Y-139493433D01*
X77021772Y-139429283D01*
X77186184Y-139396580D01*
X77353816Y-139396580D01*
X77518228Y-139429283D01*
G37*
G36*
X57001000Y-139301000D02*
G01*
X55199000Y-139301000D01*
X55199000Y-137499000D01*
X57001000Y-137499000D01*
X57001000Y-139301000D01*
G37*
G36*
X107721000Y-124061000D02*
G01*
X105919000Y-124061000D01*
X105919000Y-122259000D01*
X107721000Y-122259000D01*
X107721000Y-124061000D01*
G37*
G36*
X109473512Y-122263927D02*
G01*
X109622812Y-122293624D01*
X109786784Y-122361544D01*
X109934354Y-122460147D01*
X110059853Y-122585646D01*
X110158456Y-122733216D01*
X110226376Y-122897188D01*
X110261000Y-123071259D01*
X110261000Y-123248741D01*
X110226376Y-123422812D01*
X110158456Y-123586784D01*
X110059853Y-123734354D01*
X109934354Y-123859853D01*
X109786784Y-123958456D01*
X109622812Y-124026376D01*
X109473512Y-124056073D01*
X109448742Y-124061000D01*
X109271258Y-124061000D01*
X109246488Y-124056073D01*
X109097188Y-124026376D01*
X108933216Y-123958456D01*
X108785646Y-123859853D01*
X108660147Y-123734354D01*
X108561544Y-123586784D01*
X108493624Y-123422812D01*
X108459000Y-123248741D01*
X108459000Y-123071259D01*
X108493624Y-122897188D01*
X108561544Y-122733216D01*
X108660147Y-122585646D01*
X108785646Y-122460147D01*
X108933216Y-122361544D01*
X109097188Y-122293624D01*
X109246488Y-122263927D01*
X109271258Y-122259000D01*
X109448742Y-122259000D01*
X109473512Y-122263927D01*
G37*
G36*
X109473512Y-63843927D02*
G01*
X109622812Y-63873624D01*
X109786784Y-63941544D01*
X109934354Y-64040147D01*
X110059853Y-64165646D01*
X110158456Y-64313216D01*
X110226376Y-64477188D01*
X110261000Y-64651259D01*
X110261000Y-64828741D01*
X110226376Y-65002812D01*
X110158456Y-65166784D01*
X110059853Y-65314354D01*
X109934354Y-65439853D01*
X109786784Y-65538456D01*
X109622812Y-65606376D01*
X109473512Y-65636073D01*
X109448742Y-65641000D01*
X109271258Y-65641000D01*
X109246488Y-65636073D01*
X109097188Y-65606376D01*
X108933216Y-65538456D01*
X108785646Y-65439853D01*
X108660147Y-65314354D01*
X108561544Y-65166784D01*
X108493624Y-65002812D01*
X108459000Y-64828741D01*
X108459000Y-64651259D01*
X108493624Y-64477188D01*
X108561544Y-64313216D01*
X108660147Y-64165646D01*
X108785646Y-64040147D01*
X108933216Y-63941544D01*
X109097188Y-63873624D01*
X109246488Y-63843927D01*
X109271258Y-63839000D01*
X109448742Y-63839000D01*
X109473512Y-63843927D01*
G37*
G36*
X56213512Y-63843927D02*
G01*
X56362812Y-63873624D01*
X56526784Y-63941544D01*
X56674354Y-64040147D01*
X56799853Y-64165646D01*
X56898456Y-64313216D01*
X56966376Y-64477188D01*
X57001000Y-64651259D01*
X57001000Y-64828741D01*
X56966376Y-65002812D01*
X56898456Y-65166784D01*
X56799853Y-65314354D01*
X56674354Y-65439853D01*
X56526784Y-65538456D01*
X56362812Y-65606376D01*
X56213512Y-65636073D01*
X56188742Y-65641000D01*
X56011258Y-65641000D01*
X55986488Y-65636073D01*
X55837188Y-65606376D01*
X55673216Y-65538456D01*
X55525646Y-65439853D01*
X55400147Y-65314354D01*
X55301544Y-65166784D01*
X55233624Y-65002812D01*
X55199000Y-64828741D01*
X55199000Y-64651259D01*
X55233624Y-64477188D01*
X55301544Y-64313216D01*
X55400147Y-64165646D01*
X55525646Y-64040147D01*
X55673216Y-63941544D01*
X55837188Y-63873624D01*
X55986488Y-63843927D01*
X56011258Y-63839000D01*
X56188742Y-63839000D01*
X56213512Y-63843927D01*
G37*
G36*
X57001000Y-63101000D02*
G01*
X55199000Y-63101000D01*
X55199000Y-61299000D01*
X57001000Y-61299000D01*
X57001000Y-63101000D01*
G37*
G36*
X110261000Y-63101000D02*
G01*
X108459000Y-63101000D01*
X108459000Y-61299000D01*
X110261000Y-61299000D01*
X110261000Y-63101000D01*
G37*
M02*
