G04 #@! TF.GenerationSoftware,KiCad,Pcbnew,5.1.5-52549c5~84~ubuntu18.04.1*
G04 #@! TF.CreationDate,2020-02-21T19:51:26+01:00*
G04 #@! TF.ProjectId,test,74657374-2e6b-4696-9361-645f70636258,rev?*
G04 #@! TF.SameCoordinates,Original*
G04 #@! TF.FileFunction,Legend,Top*
G04 #@! TF.FilePolarity,Positive*
%FSLAX46Y46*%
G04 Gerber Fmt 4.6, Leading zero omitted, Abs format (unit mm)*
G04 Created by KiCad (PCBNEW 5.1.5-52549c5~84~ubuntu18.04.1) date 2020-02-21 19:51:26*
%MOMM*%
%LPD*%
G04 APERTURE LIST*
%ADD10C,0.150000*%
%ADD11C,0.120000*%
G04 APERTURE END LIST*
D10*
X116143019Y-89015633D02*
X116143019Y-88825157D01*
X116095400Y-88729919D01*
X116047780Y-88682300D01*
X115904923Y-88587061D01*
X115714447Y-88539442D01*
X115333495Y-88539442D01*
X115238257Y-88587061D01*
X115190638Y-88634680D01*
X115143019Y-88729919D01*
X115143019Y-88920395D01*
X115190638Y-89015633D01*
X115238257Y-89063252D01*
X115333495Y-89110871D01*
X115571590Y-89110871D01*
X115666828Y-89063252D01*
X115714447Y-89015633D01*
X115762066Y-88920395D01*
X115762066Y-88729919D01*
X115714447Y-88634680D01*
X115666828Y-88587061D01*
X115571590Y-88539442D01*
X116143019Y-89729919D02*
X116143019Y-89825157D01*
X116095400Y-89920395D01*
X116047780Y-89968014D01*
X115952542Y-90015633D01*
X115762066Y-90063252D01*
X115523971Y-90063252D01*
X115333495Y-90015633D01*
X115238257Y-89968014D01*
X115190638Y-89920395D01*
X115143019Y-89825157D01*
X115143019Y-89729919D01*
X115190638Y-89634680D01*
X115238257Y-89587061D01*
X115333495Y-89539442D01*
X115523971Y-89491823D01*
X115762066Y-89491823D01*
X115952542Y-89539442D01*
X116047780Y-89587061D01*
X116095400Y-89634680D01*
X116143019Y-89729919D01*
X115238257Y-90491823D02*
X115190638Y-90539442D01*
X115143019Y-90491823D01*
X115190638Y-90444204D01*
X115238257Y-90491823D01*
X115143019Y-90491823D01*
X115143019Y-91015633D02*
X115143019Y-91206109D01*
X115190638Y-91301347D01*
X115238257Y-91348966D01*
X115381114Y-91444204D01*
X115571590Y-91491823D01*
X115952542Y-91491823D01*
X116047780Y-91444204D01*
X116095400Y-91396585D01*
X116143019Y-91301347D01*
X116143019Y-91110871D01*
X116095400Y-91015633D01*
X116047780Y-90968014D01*
X115952542Y-90920395D01*
X115714447Y-90920395D01*
X115619209Y-90968014D01*
X115571590Y-91015633D01*
X115523971Y-91110871D01*
X115523971Y-91301347D01*
X115571590Y-91396585D01*
X115619209Y-91444204D01*
X115714447Y-91491823D01*
X116143019Y-92348966D02*
X116143019Y-92158490D01*
X116095400Y-92063252D01*
X116047780Y-92015633D01*
X115904923Y-91920395D01*
X115714447Y-91872776D01*
X115333495Y-91872776D01*
X115238257Y-91920395D01*
X115190638Y-91968014D01*
X115143019Y-92063252D01*
X115143019Y-92253728D01*
X115190638Y-92348966D01*
X115238257Y-92396585D01*
X115333495Y-92444204D01*
X115571590Y-92444204D01*
X115666828Y-92396585D01*
X115714447Y-92348966D01*
X115762066Y-92253728D01*
X115762066Y-92063252D01*
X115714447Y-91968014D01*
X115666828Y-91920395D01*
X115571590Y-91872776D01*
X116143019Y-93348966D02*
X116143019Y-92872776D01*
X115666828Y-92825157D01*
X115714447Y-92872776D01*
X115762066Y-92968014D01*
X115762066Y-93206109D01*
X115714447Y-93301347D01*
X115666828Y-93348966D01*
X115571590Y-93396585D01*
X115333495Y-93396585D01*
X115238257Y-93348966D01*
X115190638Y-93301347D01*
X115143019Y-93206109D01*
X115143019Y-92968014D01*
X115190638Y-92872776D01*
X115238257Y-92825157D01*
X115143019Y-94587061D02*
X115809685Y-94587061D01*
X115714447Y-94587061D02*
X115762066Y-94634680D01*
X115809685Y-94729919D01*
X115809685Y-94872776D01*
X115762066Y-94968014D01*
X115666828Y-95015633D01*
X115143019Y-95015633D01*
X115666828Y-95015633D02*
X115762066Y-95063252D01*
X115809685Y-95158490D01*
X115809685Y-95301347D01*
X115762066Y-95396585D01*
X115666828Y-95444204D01*
X115143019Y-95444204D01*
X115143019Y-95920395D02*
X115809685Y-95920395D01*
X115714447Y-95920395D02*
X115762066Y-95968014D01*
X115809685Y-96063252D01*
X115809685Y-96206109D01*
X115762066Y-96301347D01*
X115666828Y-96348966D01*
X115143019Y-96348966D01*
X115666828Y-96348966D02*
X115762066Y-96396585D01*
X115809685Y-96491823D01*
X115809685Y-96634680D01*
X115762066Y-96729919D01*
X115666828Y-96777538D01*
X115143019Y-96777538D01*
D11*
X114325400Y-62200000D02*
X114325400Y-123164600D01*
X106760000Y-62200000D02*
X114911821Y-62200000D01*
X106760000Y-123164600D02*
X114911821Y-123164600D01*
X114325400Y-123164600D02*
X113738979Y-122038096D01*
X114325400Y-123164600D02*
X114911821Y-122038096D01*
X114325400Y-62200000D02*
X113738979Y-63326504D01*
X114325400Y-62200000D02*
X114911821Y-63326504D01*
D10*
X36793419Y-96111823D02*
X36793419Y-96778490D01*
X35793419Y-96349919D01*
X36793419Y-97588014D02*
X36793419Y-97397538D01*
X36745800Y-97302300D01*
X36698180Y-97254680D01*
X36555323Y-97159442D01*
X36364847Y-97111823D01*
X35983895Y-97111823D01*
X35888657Y-97159442D01*
X35841038Y-97207061D01*
X35793419Y-97302300D01*
X35793419Y-97492776D01*
X35841038Y-97588014D01*
X35888657Y-97635633D01*
X35983895Y-97683252D01*
X36221990Y-97683252D01*
X36317228Y-97635633D01*
X36364847Y-97588014D01*
X36412466Y-97492776D01*
X36412466Y-97302300D01*
X36364847Y-97207061D01*
X36317228Y-97159442D01*
X36221990Y-97111823D01*
X35888657Y-98111823D02*
X35841038Y-98159442D01*
X35793419Y-98111823D01*
X35841038Y-98064204D01*
X35888657Y-98111823D01*
X35793419Y-98111823D01*
X36698180Y-98540395D02*
X36745800Y-98588014D01*
X36793419Y-98683252D01*
X36793419Y-98921347D01*
X36745800Y-99016585D01*
X36698180Y-99064204D01*
X36602942Y-99111823D01*
X36507704Y-99111823D01*
X36364847Y-99064204D01*
X35793419Y-98492776D01*
X35793419Y-99111823D01*
X36793419Y-99730871D02*
X36793419Y-99826109D01*
X36745800Y-99921347D01*
X36698180Y-99968966D01*
X36602942Y-100016585D01*
X36412466Y-100064204D01*
X36174371Y-100064204D01*
X35983895Y-100016585D01*
X35888657Y-99968966D01*
X35841038Y-99921347D01*
X35793419Y-99826109D01*
X35793419Y-99730871D01*
X35841038Y-99635633D01*
X35888657Y-99588014D01*
X35983895Y-99540395D01*
X36174371Y-99492776D01*
X36412466Y-99492776D01*
X36602942Y-99540395D01*
X36698180Y-99588014D01*
X36745800Y-99635633D01*
X36793419Y-99730871D01*
X36793419Y-100968966D02*
X36793419Y-100492776D01*
X36317228Y-100445157D01*
X36364847Y-100492776D01*
X36412466Y-100588014D01*
X36412466Y-100826109D01*
X36364847Y-100921347D01*
X36317228Y-100968966D01*
X36221990Y-101016585D01*
X35983895Y-101016585D01*
X35888657Y-100968966D01*
X35841038Y-100921347D01*
X35793419Y-100826109D01*
X35793419Y-100588014D01*
X35841038Y-100492776D01*
X35888657Y-100445157D01*
X35793419Y-102207061D02*
X36460085Y-102207061D01*
X36364847Y-102207061D02*
X36412466Y-102254680D01*
X36460085Y-102349919D01*
X36460085Y-102492776D01*
X36412466Y-102588014D01*
X36317228Y-102635633D01*
X35793419Y-102635633D01*
X36317228Y-102635633D02*
X36412466Y-102683252D01*
X36460085Y-102778490D01*
X36460085Y-102921347D01*
X36412466Y-103016585D01*
X36317228Y-103064204D01*
X35793419Y-103064204D01*
X35793419Y-103540395D02*
X36460085Y-103540395D01*
X36364847Y-103540395D02*
X36412466Y-103588014D01*
X36460085Y-103683252D01*
X36460085Y-103826109D01*
X36412466Y-103921347D01*
X36317228Y-103968966D01*
X35793419Y-103968966D01*
X36317228Y-103968966D02*
X36412466Y-104016585D01*
X36460085Y-104111823D01*
X36460085Y-104254680D01*
X36412466Y-104349919D01*
X36317228Y-104397538D01*
X35793419Y-104397538D01*
D11*
X37515800Y-62200000D02*
X37515800Y-138404600D01*
X56100000Y-62200000D02*
X36929379Y-62200000D01*
X56100000Y-138404600D02*
X36929379Y-138404600D01*
X37515800Y-138404600D02*
X36929379Y-137278096D01*
X37515800Y-138404600D02*
X38102221Y-137278096D01*
X37515800Y-62200000D02*
X36929379Y-63326504D01*
X37515800Y-62200000D02*
X38102221Y-63326504D01*
X81170000Y-130870000D02*
X82820000Y-130870000D01*
X81170000Y-120590000D02*
X81170000Y-130870000D01*
X86470000Y-120590000D02*
X81170000Y-120590000D01*
X86470000Y-130870000D02*
X86470000Y-120590000D01*
X84820000Y-130870000D02*
X86470000Y-130870000D01*
X82820000Y-130870000D02*
G75*
G02X84820000Y-130870000I1000000J0D01*
G01*
X54770000Y-63470000D02*
X57430000Y-63470000D01*
X54770000Y-63470000D02*
X54770000Y-66070000D01*
X54770000Y-66070000D02*
X57430000Y-66070000D01*
X57430000Y-63470000D02*
X57430000Y-66070000D01*
X57430000Y-60870000D02*
X57430000Y-62200000D01*
X56100000Y-60870000D02*
X57430000Y-60870000D01*
X54770000Y-139670000D02*
X57430000Y-139670000D01*
X54770000Y-139670000D02*
X54770000Y-142270000D01*
X54770000Y-142270000D02*
X57430000Y-142270000D01*
X57430000Y-139670000D02*
X57430000Y-142270000D01*
X57430000Y-137070000D02*
X57430000Y-138400000D01*
X56100000Y-137070000D02*
X57430000Y-137070000D01*
X109360000Y-60870000D02*
X110690000Y-60870000D01*
X110690000Y-60870000D02*
X110690000Y-62200000D01*
X110690000Y-63470000D02*
X110690000Y-66070000D01*
X108030000Y-66070000D02*
X110690000Y-66070000D01*
X108030000Y-63470000D02*
X108030000Y-66070000D01*
X108030000Y-63470000D02*
X110690000Y-63470000D01*
X105490000Y-123160000D02*
X105490000Y-121830000D01*
X105490000Y-121830000D02*
X106820000Y-121830000D01*
X108090000Y-121830000D02*
X110690000Y-121830000D01*
X110690000Y-124490000D02*
X110690000Y-121830000D01*
X108090000Y-124490000D02*
X110690000Y-124490000D01*
X108090000Y-124490000D02*
X108090000Y-121830000D01*
D10*
X83058095Y-131322380D02*
X83058095Y-132131904D01*
X83105714Y-132227142D01*
X83153333Y-132274761D01*
X83248571Y-132322380D01*
X83439047Y-132322380D01*
X83534285Y-132274761D01*
X83581904Y-132227142D01*
X83629523Y-132131904D01*
X83629523Y-131322380D01*
X84629523Y-132322380D02*
X84058095Y-132322380D01*
X84343809Y-132322380D02*
X84343809Y-131322380D01*
X84248571Y-131465238D01*
X84153333Y-131560476D01*
X84058095Y-131608095D01*
X55766666Y-58882380D02*
X55766666Y-59596666D01*
X55719047Y-59739523D01*
X55623809Y-59834761D01*
X55480952Y-59882380D01*
X55385714Y-59882380D01*
X56766666Y-59882380D02*
X56195238Y-59882380D01*
X56480952Y-59882380D02*
X56480952Y-58882380D01*
X56385714Y-59025238D01*
X56290476Y-59120476D01*
X56195238Y-59168095D01*
X55766666Y-135082380D02*
X55766666Y-135796666D01*
X55719047Y-135939523D01*
X55623809Y-136034761D01*
X55480952Y-136082380D01*
X55385714Y-136082380D01*
X56195238Y-135177619D02*
X56242857Y-135130000D01*
X56338095Y-135082380D01*
X56576190Y-135082380D01*
X56671428Y-135130000D01*
X56719047Y-135177619D01*
X56766666Y-135272857D01*
X56766666Y-135368095D01*
X56719047Y-135510952D01*
X56147619Y-136082380D01*
X56766666Y-136082380D01*
X109026666Y-58882380D02*
X109026666Y-59596666D01*
X108979047Y-59739523D01*
X108883809Y-59834761D01*
X108740952Y-59882380D01*
X108645714Y-59882380D01*
X109931428Y-59215714D02*
X109931428Y-59882380D01*
X109693333Y-58834761D02*
X109455238Y-59549047D01*
X110074285Y-59549047D01*
X103502380Y-123493333D02*
X104216666Y-123493333D01*
X104359523Y-123540952D01*
X104454761Y-123636190D01*
X104502380Y-123779047D01*
X104502380Y-123874285D01*
X103502380Y-122540952D02*
X103502380Y-123017142D01*
X103978571Y-123064761D01*
X103930952Y-123017142D01*
X103883333Y-122921904D01*
X103883333Y-122683809D01*
X103930952Y-122588571D01*
X103978571Y-122540952D01*
X104073809Y-122493333D01*
X104311904Y-122493333D01*
X104407142Y-122540952D01*
X104454761Y-122588571D01*
X104502380Y-122683809D01*
X104502380Y-122921904D01*
X104454761Y-123017142D01*
X104407142Y-123064761D01*
M02*
