G04 #@! TF.GenerationSoftware,KiCad,Pcbnew,5.1.5-52549c5~84~ubuntu18.04.1*
G04 #@! TF.CreationDate,2020-02-21T19:51:26+01:00*
G04 #@! TF.ProjectId,test,74657374-2e6b-4696-9361-645f70636258,rev?*
G04 #@! TF.SameCoordinates,Original*
G04 #@! TF.FileFunction,Copper,L1,Top*
G04 #@! TF.FilePolarity,Positive*
%FSLAX46Y46*%
G04 Gerber Fmt 4.6, Leading zero omitted, Abs format (unit mm)*
G04 Created by KiCad (PCBNEW 5.1.5-52549c5~84~ubuntu18.04.1) date 2020-02-21 19:51:26*
%MOMM*%
%LPD*%
G04 APERTURE LIST*
%ADD10C,0.375000*%
%ADD11O,1.600000X1.600000*%
%ADD12R,1.600000X1.600000*%
%ADD13C,4.000000*%
%ADD14C,1.600000*%
%ADD15R,1.700000X1.700000*%
%ADD16O,1.700000X1.700000*%
%ADD17C,0.250000*%
G04 APERTURE END LIST*
D10*
X81428571Y-62735714D02*
X81357142Y-62807142D01*
X81142857Y-62878571D01*
X81000000Y-62878571D01*
X80785714Y-62807142D01*
X80642857Y-62664285D01*
X80571428Y-62521428D01*
X80500000Y-62235714D01*
X80500000Y-62021428D01*
X80571428Y-61735714D01*
X80642857Y-61592857D01*
X80785714Y-61450000D01*
X81000000Y-61378571D01*
X81142857Y-61378571D01*
X81357142Y-61450000D01*
X81428571Y-61521428D01*
X82000000Y-62450000D02*
X82714285Y-62450000D01*
X81857142Y-62878571D02*
X82357142Y-61378571D01*
X82857142Y-62878571D01*
X83357142Y-62878571D02*
X83357142Y-61378571D01*
X84214285Y-62878571D01*
X84214285Y-61378571D01*
X84714285Y-61378571D02*
X85214285Y-62878571D01*
X85714285Y-61378571D01*
X86214285Y-62878571D02*
X86214285Y-61878571D01*
X86214285Y-61378571D02*
X86142857Y-61450000D01*
X86214285Y-61521428D01*
X86285714Y-61450000D01*
X86214285Y-61378571D01*
X86214285Y-61521428D01*
X86785714Y-61878571D02*
X87571428Y-61878571D01*
X86785714Y-62878571D01*
X87571428Y-62878571D01*
D11*
X80010000Y-129540000D03*
X87630000Y-121920000D03*
X80010000Y-127000000D03*
X87630000Y-124460000D03*
X80010000Y-124460000D03*
X87630000Y-127000000D03*
X80010000Y-121920000D03*
D12*
X87630000Y-129540000D03*
D13*
X70310000Y-140547580D03*
X95310000Y-140547580D03*
D14*
X78655000Y-143087580D03*
X81425000Y-143087580D03*
X84195000Y-143087580D03*
X86965000Y-143087580D03*
X77270000Y-140247580D03*
X80040000Y-140247580D03*
X82810000Y-140247580D03*
X85580000Y-140247580D03*
D12*
X88350000Y-140247580D03*
D15*
X56100000Y-62200000D03*
D16*
X56100000Y-64740000D03*
D15*
X56100000Y-138400000D03*
D16*
X56100000Y-140940000D03*
X109360000Y-64740000D03*
D15*
X109360000Y-62200000D03*
D16*
X109360000Y-123160000D03*
D15*
X106820000Y-123160000D03*
D17*
X86830001Y-123660001D02*
X87630000Y-124460000D01*
X86504999Y-91504999D02*
X86504999Y-123334999D01*
X57200000Y-62200000D02*
X86504999Y-91504999D01*
X86504999Y-123334999D02*
X86830001Y-123660001D01*
X56100000Y-62200000D02*
X57200000Y-62200000D01*
X86830001Y-126200001D02*
X87630000Y-127000000D01*
X83964999Y-123334999D02*
X86830001Y-126200001D01*
X78884999Y-123919999D02*
X79469999Y-123334999D01*
X78884999Y-128414999D02*
X78884999Y-123919999D01*
X79469999Y-123334999D02*
X83964999Y-123334999D01*
X80010000Y-129540000D02*
X78884999Y-128414999D01*
X67500000Y-129540000D02*
X56100000Y-140940000D01*
X80010000Y-129540000D02*
X67500000Y-129540000D01*
X85580000Y-130030000D02*
X85580000Y-140247580D01*
X80010000Y-124460000D02*
X85580000Y-130030000D01*
X84195000Y-131185000D02*
X84195000Y-143087580D01*
X80010000Y-127000000D02*
X84195000Y-131185000D01*
X88680000Y-129540000D02*
X87630000Y-129540000D01*
X101540000Y-129540000D02*
X88680000Y-129540000D01*
X106820000Y-124260000D02*
X101540000Y-129540000D01*
X106820000Y-123160000D02*
X106820000Y-124260000D01*
X108120000Y-121920000D02*
X87630000Y-121920000D01*
X109360000Y-123160000D02*
X108120000Y-121920000D01*
M02*
