G04 #@! TF.GenerationSoftware,KiCad,Pcbnew,5.1.5-52549c5~84~ubuntu18.04.1*
G04 #@! TF.CreationDate,2020-02-18T11:51:06+01:00*
G04 #@! TF.ProjectId,test,74657374-2e6b-4696-9361-645f70636258,rev?*
G04 #@! TF.SameCoordinates,Original*
G04 #@! TF.FileFunction,Soldermask,Bot*
G04 #@! TF.FilePolarity,Negative*
%FSLAX46Y46*%
G04 Gerber Fmt 4.6, Leading zero omitted, Abs format (unit mm)*
G04 Created by KiCad (PCBNEW 5.1.5-52549c5~84~ubuntu18.04.1) date 2020-02-18 11:51:06*
%MOMM*%
%LPD*%
G04 APERTURE LIST*
%ADD10C,0.100000*%
G04 APERTURE END LIST*
D10*
G36*
X56213512Y-140043927D02*
G01*
X56362812Y-140073624D01*
X56526784Y-140141544D01*
X56674354Y-140240147D01*
X56799853Y-140365646D01*
X56898456Y-140513216D01*
X56966376Y-140677188D01*
X57001000Y-140851259D01*
X57001000Y-141028741D01*
X56966376Y-141202812D01*
X56898456Y-141366784D01*
X56799853Y-141514354D01*
X56674354Y-141639853D01*
X56526784Y-141738456D01*
X56362812Y-141806376D01*
X56213512Y-141836073D01*
X56188742Y-141841000D01*
X56011258Y-141841000D01*
X55986488Y-141836073D01*
X55837188Y-141806376D01*
X55673216Y-141738456D01*
X55525646Y-141639853D01*
X55400147Y-141514354D01*
X55301544Y-141366784D01*
X55233624Y-141202812D01*
X55199000Y-141028741D01*
X55199000Y-140851259D01*
X55233624Y-140677188D01*
X55301544Y-140513216D01*
X55400147Y-140365646D01*
X55525646Y-140240147D01*
X55673216Y-140141544D01*
X55837188Y-140073624D01*
X55986488Y-140043927D01*
X56011258Y-140039000D01*
X56188742Y-140039000D01*
X56213512Y-140043927D01*
G37*
G36*
X78903228Y-137729283D02*
G01*
X79058100Y-137793433D01*
X79197481Y-137886565D01*
X79316015Y-138005099D01*
X79409147Y-138144480D01*
X79473297Y-138299352D01*
X79506000Y-138463764D01*
X79506000Y-138631396D01*
X79473297Y-138795808D01*
X79409147Y-138950680D01*
X79316015Y-139090061D01*
X79197481Y-139208595D01*
X79058100Y-139301727D01*
X78903228Y-139365877D01*
X78738816Y-139398580D01*
X78571184Y-139398580D01*
X78406772Y-139365877D01*
X78251900Y-139301727D01*
X78112519Y-139208595D01*
X77993985Y-139090061D01*
X77900853Y-138950680D01*
X77836703Y-138795808D01*
X77804000Y-138631396D01*
X77804000Y-138463764D01*
X77836703Y-138299352D01*
X77900853Y-138144480D01*
X77993985Y-138005099D01*
X78112519Y-137886565D01*
X78251900Y-137793433D01*
X78406772Y-137729283D01*
X78571184Y-137696580D01*
X78738816Y-137696580D01*
X78903228Y-137729283D01*
G37*
G36*
X87213228Y-137729283D02*
G01*
X87368100Y-137793433D01*
X87507481Y-137886565D01*
X87626015Y-138005099D01*
X87719147Y-138144480D01*
X87783297Y-138299352D01*
X87816000Y-138463764D01*
X87816000Y-138631396D01*
X87783297Y-138795808D01*
X87719147Y-138950680D01*
X87626015Y-139090061D01*
X87507481Y-139208595D01*
X87368100Y-139301727D01*
X87213228Y-139365877D01*
X87048816Y-139398580D01*
X86881184Y-139398580D01*
X86716772Y-139365877D01*
X86561900Y-139301727D01*
X86422519Y-139208595D01*
X86303985Y-139090061D01*
X86210853Y-138950680D01*
X86146703Y-138795808D01*
X86114000Y-138631396D01*
X86114000Y-138463764D01*
X86146703Y-138299352D01*
X86210853Y-138144480D01*
X86303985Y-138005099D01*
X86422519Y-137886565D01*
X86561900Y-137793433D01*
X86716772Y-137729283D01*
X86881184Y-137696580D01*
X87048816Y-137696580D01*
X87213228Y-137729283D01*
G37*
G36*
X84443228Y-137729283D02*
G01*
X84598100Y-137793433D01*
X84737481Y-137886565D01*
X84856015Y-138005099D01*
X84949147Y-138144480D01*
X85013297Y-138299352D01*
X85046000Y-138463764D01*
X85046000Y-138631396D01*
X85013297Y-138795808D01*
X84949147Y-138950680D01*
X84856015Y-139090061D01*
X84737481Y-139208595D01*
X84598100Y-139301727D01*
X84443228Y-139365877D01*
X84278816Y-139398580D01*
X84111184Y-139398580D01*
X83946772Y-139365877D01*
X83791900Y-139301727D01*
X83652519Y-139208595D01*
X83533985Y-139090061D01*
X83440853Y-138950680D01*
X83376703Y-138795808D01*
X83344000Y-138631396D01*
X83344000Y-138463764D01*
X83376703Y-138299352D01*
X83440853Y-138144480D01*
X83533985Y-138005099D01*
X83652519Y-137886565D01*
X83791900Y-137793433D01*
X83946772Y-137729283D01*
X84111184Y-137696580D01*
X84278816Y-137696580D01*
X84443228Y-137729283D01*
G37*
G36*
X81673228Y-137729283D02*
G01*
X81828100Y-137793433D01*
X81967481Y-137886565D01*
X82086015Y-138005099D01*
X82179147Y-138144480D01*
X82243297Y-138299352D01*
X82276000Y-138463764D01*
X82276000Y-138631396D01*
X82243297Y-138795808D01*
X82179147Y-138950680D01*
X82086015Y-139090061D01*
X81967481Y-139208595D01*
X81828100Y-139301727D01*
X81673228Y-139365877D01*
X81508816Y-139398580D01*
X81341184Y-139398580D01*
X81176772Y-139365877D01*
X81021900Y-139301727D01*
X80882519Y-139208595D01*
X80763985Y-139090061D01*
X80670853Y-138950680D01*
X80606703Y-138795808D01*
X80574000Y-138631396D01*
X80574000Y-138463764D01*
X80606703Y-138299352D01*
X80670853Y-138144480D01*
X80763985Y-138005099D01*
X80882519Y-137886565D01*
X81021900Y-137793433D01*
X81176772Y-137729283D01*
X81341184Y-137696580D01*
X81508816Y-137696580D01*
X81673228Y-137729283D01*
G37*
G36*
X57001000Y-139301000D02*
G01*
X55199000Y-139301000D01*
X55199000Y-137499000D01*
X57001000Y-137499000D01*
X57001000Y-139301000D01*
G37*
G36*
X80288228Y-135189283D02*
G01*
X80443100Y-135253433D01*
X80582481Y-135346565D01*
X80701015Y-135465099D01*
X80794147Y-135604480D01*
X80858297Y-135759352D01*
X80891000Y-135923764D01*
X80891000Y-136091396D01*
X80858297Y-136255808D01*
X80794147Y-136410680D01*
X80701015Y-136550061D01*
X80582481Y-136668595D01*
X80443100Y-136761727D01*
X80288228Y-136825877D01*
X80123816Y-136858580D01*
X79956184Y-136858580D01*
X79791772Y-136825877D01*
X79636900Y-136761727D01*
X79497519Y-136668595D01*
X79378985Y-136550061D01*
X79285853Y-136410680D01*
X79221703Y-136255808D01*
X79189000Y-136091396D01*
X79189000Y-135923764D01*
X79221703Y-135759352D01*
X79285853Y-135604480D01*
X79378985Y-135465099D01*
X79497519Y-135346565D01*
X79636900Y-135253433D01*
X79791772Y-135189283D01*
X79956184Y-135156580D01*
X80123816Y-135156580D01*
X80288228Y-135189283D01*
G37*
G36*
X85828228Y-135189283D02*
G01*
X85983100Y-135253433D01*
X86122481Y-135346565D01*
X86241015Y-135465099D01*
X86334147Y-135604480D01*
X86398297Y-135759352D01*
X86431000Y-135923764D01*
X86431000Y-136091396D01*
X86398297Y-136255808D01*
X86334147Y-136410680D01*
X86241015Y-136550061D01*
X86122481Y-136668595D01*
X85983100Y-136761727D01*
X85828228Y-136825877D01*
X85663816Y-136858580D01*
X85496184Y-136858580D01*
X85331772Y-136825877D01*
X85176900Y-136761727D01*
X85037519Y-136668595D01*
X84918985Y-136550061D01*
X84825853Y-136410680D01*
X84761703Y-136255808D01*
X84729000Y-136091396D01*
X84729000Y-135923764D01*
X84761703Y-135759352D01*
X84825853Y-135604480D01*
X84918985Y-135465099D01*
X85037519Y-135346565D01*
X85176900Y-135253433D01*
X85331772Y-135189283D01*
X85496184Y-135156580D01*
X85663816Y-135156580D01*
X85828228Y-135189283D01*
G37*
G36*
X83058228Y-135189283D02*
G01*
X83213100Y-135253433D01*
X83352481Y-135346565D01*
X83471015Y-135465099D01*
X83564147Y-135604480D01*
X83628297Y-135759352D01*
X83661000Y-135923764D01*
X83661000Y-136091396D01*
X83628297Y-136255808D01*
X83564147Y-136410680D01*
X83471015Y-136550061D01*
X83352481Y-136668595D01*
X83213100Y-136761727D01*
X83058228Y-136825877D01*
X82893816Y-136858580D01*
X82726184Y-136858580D01*
X82561772Y-136825877D01*
X82406900Y-136761727D01*
X82267519Y-136668595D01*
X82148985Y-136550061D01*
X82055853Y-136410680D01*
X81991703Y-136255808D01*
X81959000Y-136091396D01*
X81959000Y-135923764D01*
X81991703Y-135759352D01*
X82055853Y-135604480D01*
X82148985Y-135465099D01*
X82267519Y-135346565D01*
X82406900Y-135253433D01*
X82561772Y-135189283D01*
X82726184Y-135156580D01*
X82893816Y-135156580D01*
X83058228Y-135189283D01*
G37*
G36*
X77518228Y-135189283D02*
G01*
X77673100Y-135253433D01*
X77812481Y-135346565D01*
X77931015Y-135465099D01*
X78024147Y-135604480D01*
X78088297Y-135759352D01*
X78121000Y-135923764D01*
X78121000Y-136091396D01*
X78088297Y-136255808D01*
X78024147Y-136410680D01*
X77931015Y-136550061D01*
X77812481Y-136668595D01*
X77673100Y-136761727D01*
X77518228Y-136825877D01*
X77353816Y-136858580D01*
X77186184Y-136858580D01*
X77021772Y-136825877D01*
X76866900Y-136761727D01*
X76727519Y-136668595D01*
X76608985Y-136550061D01*
X76515853Y-136410680D01*
X76451703Y-136255808D01*
X76419000Y-136091396D01*
X76419000Y-135923764D01*
X76451703Y-135759352D01*
X76515853Y-135604480D01*
X76608985Y-135465099D01*
X76727519Y-135346565D01*
X76866900Y-135253433D01*
X77021772Y-135189283D01*
X77186184Y-135156580D01*
X77353816Y-135156580D01*
X77518228Y-135189283D01*
G37*
G36*
X89201000Y-136858580D02*
G01*
X87499000Y-136858580D01*
X87499000Y-135156580D01*
X89201000Y-135156580D01*
X89201000Y-136858580D01*
G37*
G36*
X107661000Y-124061000D02*
G01*
X105859000Y-124061000D01*
X105859000Y-122259000D01*
X107661000Y-122259000D01*
X107661000Y-124061000D01*
G37*
G36*
X109413512Y-122263927D02*
G01*
X109562812Y-122293624D01*
X109726784Y-122361544D01*
X109874354Y-122460147D01*
X109999853Y-122585646D01*
X110098456Y-122733216D01*
X110166376Y-122897188D01*
X110201000Y-123071259D01*
X110201000Y-123248741D01*
X110166376Y-123422812D01*
X110098456Y-123586784D01*
X109999853Y-123734354D01*
X109874354Y-123859853D01*
X109726784Y-123958456D01*
X109562812Y-124026376D01*
X109413512Y-124056073D01*
X109388742Y-124061000D01*
X109211258Y-124061000D01*
X109186488Y-124056073D01*
X109037188Y-124026376D01*
X108873216Y-123958456D01*
X108725646Y-123859853D01*
X108600147Y-123734354D01*
X108501544Y-123586784D01*
X108433624Y-123422812D01*
X108399000Y-123248741D01*
X108399000Y-123071259D01*
X108433624Y-122897188D01*
X108501544Y-122733216D01*
X108600147Y-122585646D01*
X108725646Y-122460147D01*
X108873216Y-122361544D01*
X109037188Y-122293624D01*
X109186488Y-122263927D01*
X109211258Y-122259000D01*
X109388742Y-122259000D01*
X109413512Y-122263927D01*
G37*
G36*
X56213512Y-63843927D02*
G01*
X56362812Y-63873624D01*
X56526784Y-63941544D01*
X56674354Y-64040147D01*
X56799853Y-64165646D01*
X56898456Y-64313216D01*
X56966376Y-64477188D01*
X57001000Y-64651259D01*
X57001000Y-64828741D01*
X56966376Y-65002812D01*
X56898456Y-65166784D01*
X56799853Y-65314354D01*
X56674354Y-65439853D01*
X56526784Y-65538456D01*
X56362812Y-65606376D01*
X56213512Y-65636073D01*
X56188742Y-65641000D01*
X56011258Y-65641000D01*
X55986488Y-65636073D01*
X55837188Y-65606376D01*
X55673216Y-65538456D01*
X55525646Y-65439853D01*
X55400147Y-65314354D01*
X55301544Y-65166784D01*
X55233624Y-65002812D01*
X55199000Y-64828741D01*
X55199000Y-64651259D01*
X55233624Y-64477188D01*
X55301544Y-64313216D01*
X55400147Y-64165646D01*
X55525646Y-64040147D01*
X55673216Y-63941544D01*
X55837188Y-63873624D01*
X55986488Y-63843927D01*
X56011258Y-63839000D01*
X56188742Y-63839000D01*
X56213512Y-63843927D01*
G37*
G36*
X109413512Y-63843927D02*
G01*
X109562812Y-63873624D01*
X109726784Y-63941544D01*
X109874354Y-64040147D01*
X109999853Y-64165646D01*
X110098456Y-64313216D01*
X110166376Y-64477188D01*
X110201000Y-64651259D01*
X110201000Y-64828741D01*
X110166376Y-65002812D01*
X110098456Y-65166784D01*
X109999853Y-65314354D01*
X109874354Y-65439853D01*
X109726784Y-65538456D01*
X109562812Y-65606376D01*
X109413512Y-65636073D01*
X109388742Y-65641000D01*
X109211258Y-65641000D01*
X109186488Y-65636073D01*
X109037188Y-65606376D01*
X108873216Y-65538456D01*
X108725646Y-65439853D01*
X108600147Y-65314354D01*
X108501544Y-65166784D01*
X108433624Y-65002812D01*
X108399000Y-64828741D01*
X108399000Y-64651259D01*
X108433624Y-64477188D01*
X108501544Y-64313216D01*
X108600147Y-64165646D01*
X108725646Y-64040147D01*
X108873216Y-63941544D01*
X109037188Y-63873624D01*
X109186488Y-63843927D01*
X109211258Y-63839000D01*
X109388742Y-63839000D01*
X109413512Y-63843927D01*
G37*
G36*
X57001000Y-63101000D02*
G01*
X55199000Y-63101000D01*
X55199000Y-61299000D01*
X57001000Y-61299000D01*
X57001000Y-63101000D01*
G37*
G36*
X110201000Y-63101000D02*
G01*
X108399000Y-63101000D01*
X108399000Y-61299000D01*
X110201000Y-61299000D01*
X110201000Y-63101000D01*
G37*
M02*
