G04 #@! TF.GenerationSoftware,KiCad,Pcbnew,5.1.5-52549c5~84~ubuntu18.04.1*
G04 #@! TF.CreationDate,2020-02-18T11:51:06+01:00*
G04 #@! TF.ProjectId,test,74657374-2e6b-4696-9361-645f70636258,rev?*
G04 #@! TF.SameCoordinates,Original*
G04 #@! TF.FileFunction,Legend,Bot*
G04 #@! TF.FilePolarity,Positive*
%FSLAX46Y46*%
G04 Gerber Fmt 4.6, Leading zero omitted, Abs format (unit mm)*
G04 Created by KiCad (PCBNEW 5.1.5-52549c5~84~ubuntu18.04.1) date 2020-02-18 11:51:06*
%MOMM*%
%LPD*%
G04 APERTURE LIST*
%ADD10C,0.120000*%
%ADD11C,0.150000*%
G04 APERTURE END LIST*
D10*
X91420000Y-147887580D02*
X91420000Y-143787580D01*
X91420000Y-143787580D02*
X89410000Y-143787580D01*
X89410000Y-143787580D02*
X89410000Y-134947580D01*
X89410000Y-134947580D02*
X76210000Y-134947580D01*
X76210000Y-134947580D02*
X76210000Y-143787580D01*
X76210000Y-143787580D02*
X74200000Y-143787580D01*
X74200000Y-143787580D02*
X74200000Y-147887580D01*
X88600000Y-134253242D02*
X88100000Y-134253242D01*
X88100000Y-134253242D02*
X88350000Y-134686255D01*
X88350000Y-134686255D02*
X88600000Y-134253242D01*
D11*
X83143333Y-133659960D02*
X83143333Y-134374246D01*
X83190952Y-134517103D01*
X83286190Y-134612341D01*
X83429047Y-134659960D01*
X83524285Y-134659960D01*
X82762380Y-133659960D02*
X82143333Y-133659960D01*
X82476666Y-134040913D01*
X82333809Y-134040913D01*
X82238571Y-134088532D01*
X82190952Y-134136151D01*
X82143333Y-134231389D01*
X82143333Y-134469484D01*
X82190952Y-134564722D01*
X82238571Y-134612341D01*
X82333809Y-134659960D01*
X82619523Y-134659960D01*
X82714761Y-134612341D01*
X82762380Y-134564722D01*
M02*
